<?xml version="1.0" encoding="us-ascii" standalone="no"?><svg xmlns="http://www.w3.org/2000/svg" xmlns:xlink="http://www.w3.org/1999/xlink" contentStyleType="text/css" height="217px" preserveAspectRatio="none" style="width:214px;height:217px;background:#FFFFFF;" version="1.1" viewBox="0 0 214 217" width="214px" zoomAndPan="magnify"><defs/><g><rect fill="#F1F1F1" height="33.9688" rx="12.5" ry="12.5" style="stroke:#181818;stroke-width:0.5;" width="93" x="60.5" y="11"/><text fill="#000000" font-family="sans-serif" font-size="12" lengthAdjust="spacing" textLength="73" x="70.5" y="32.1387">&#26412;&#22320;&#20195;&#30721;(TS)</text><rect fill="#F1F1F1" height="33.9688" rx="12.5" ry="12.5" style="stroke:#181818;stroke-width:0.5;" width="90" x="62" y="64.9688"/><text fill="#000000" font-family="sans-serif" font-size="12" lengthAdjust="spacing" textLength="70" x="72" y="86.1074">&#26500;&#24314;&#20135;&#29289;(JS)</text><rect fill="#F1F1F1" height="33.9688" rx="12.5" ry="12.5" style="stroke:#181818;stroke-width:0.5;" width="192" x="11" y="118.9375"/><text fill="#000000" font-family="sans-serif" font-size="12" lengthAdjust="spacing" textLength="172" x="21" y="140.0762">miniprogram-ci(JS&#30340;es5&#29256;&#26412;)</text><rect fill="#F1F1F1" height="33.9688" rx="12.5" ry="12.5" style="stroke:#181818;stroke-width:0.5;" width="80" x="67" y="172.9063"/><text fill="#000000" font-family="sans-serif" font-size="12" lengthAdjust="spacing" textLength="60" x="77" y="194.0449">&#23567;&#31243;&#24207;&#21518;&#21488;</text><line style="stroke:#181818;stroke-width:1.0;" x1="107" x2="107" y1="44.9688" y2="64.9688"/><polygon fill="#181818" points="103,54.9688,107,64.9688,111,54.9688,107,58.9688" style="stroke:#181818;stroke-width:1.0;"/><line style="stroke:#181818;stroke-width:1.0;" x1="107" x2="107" y1="98.9375" y2="118.9375"/><polygon fill="#181818" points="103,108.9375,107,118.9375,111,108.9375,107,112.9375" style="stroke:#181818;stroke-width:1.0;"/><line style="stroke:#181818;stroke-width:1.0;" x1="107" x2="107" y1="152.9063" y2="172.9063"/><polygon fill="#181818" points="103,162.9063,107,172.9063,111,162.9063,107,166.9063" style="stroke:#181818;stroke-width:1.0;"/><!--SRC=[itesPytJEHkUx5xyV46ZHaYmfZMNrRDvBKztxtgoQ_dppfKQNc2XtCoyp8AY_FIYn5pTv4oWuFDPBQd5fiyxEu3wGGgURkX_lgBxwQx-fnFwdlPli0O0]--></g></svg>