<?xml version="1.0" encoding="us-ascii" standalone="no"?><svg xmlns="http://www.w3.org/2000/svg" xmlns:xlink="http://www.w3.org/1999/xlink" contentStyleType="text/css" height="311px" preserveAspectRatio="none" style="width:245px;height:311px;background:#FFFFFF;" version="1.1" viewBox="0 0 245 311" width="245px" zoomAndPan="magnify"><defs/><g><rect fill="#F1F1F1" height="33.9688" rx="12.5" ry="12.5" style="stroke:#181818;stroke-width:0.5;" width="68" x="88.5" y="11"/><text fill="#000000" font-family="sans-serif" font-size="12" lengthAdjust="spacing" textLength="48" x="98.5" y="32.1387">&#26412;&#22320;&#20195;&#30721;</text><rect fill="#F1F1F1" height="33.9688" rx="12.5" ry="12.5" style="stroke:#181818;stroke-width:0.5;" width="68" x="88.5" y="64.9688"/><text fill="#000000" font-family="sans-serif" font-size="12" lengthAdjust="spacing" textLength="48" x="98.5" y="86.1074">&#26500;&#24314;&#20135;&#29289;</text><line style="stroke:#181818;stroke-width:1.5;" x1="50.5" x2="176" y1="118.9375" y2="118.9375"/><rect fill="#F1F1F1" height="33.9688" rx="12.5" ry="12.5" style="stroke:#181818;stroke-width:0.5;" width="79" x="11" y="138.9375"/><text fill="#000000" font-family="sans-serif" font-size="12" lengthAdjust="spacing" textLength="59" x="21" y="160.0762">&#33258;&#24314;CI&#19978;&#20256;</text><rect fill="#F1F1F1" height="33.9688" rx="12.5" ry="12.5" style="stroke:#181818;stroke-width:0.5;" width="116" x="118" y="138.9375"/><text fill="#000000" font-family="sans-serif" font-size="12" lengthAdjust="spacing" textLength="96" x="128" y="160.0762">&#24494;&#20449;&#24320;&#21457;&#24037;&#20855;&#19978;&#20256;</text><line style="stroke:#181818;stroke-width:1.5;" x1="50.5" x2="176" y1="192.9063" y2="192.9063"/><rect fill="#F1F1F1" height="33.9688" rx="12.5" ry="12.5" style="stroke:#181818;stroke-width:0.5;" width="111" x="67" y="212.9063"/><text fill="#000000" font-family="sans-serif" font-size="12" lengthAdjust="spacing" textLength="91" x="77" y="234.0449">miniprogram-ci</text><rect fill="#F1F1F1" height="33.9688" rx="12.5" ry="12.5" style="stroke:#181818;stroke-width:0.5;" width="80" x="82.5" y="266.875"/><text fill="#000000" font-family="sans-serif" font-size="12" lengthAdjust="spacing" textLength="60" x="92.5" y="288.0137">&#23567;&#31243;&#24207;&#21518;&#21488;</text><line style="stroke:#181818;stroke-width:1.0;" x1="122.5" x2="122.5" y1="44.9688" y2="64.9688"/><polygon fill="#181818" points="118.5,54.9688,122.5,64.9688,126.5,54.9688,122.5,58.9688" style="stroke:#181818;stroke-width:1.0;"/><line style="stroke:#181818;stroke-width:1.0;" x1="50.5" x2="50.5" y1="120.4375" y2="138.9375"/><polygon fill="#181818" points="46.5,128.9375,50.5,138.9375,54.5,128.9375,50.5,132.9375" style="stroke:#181818;stroke-width:1.0;"/><line style="stroke:#181818;stroke-width:1.0;" x1="176" x2="176" y1="120.4375" y2="138.9375"/><polygon fill="#181818" points="172,128.9375,176,138.9375,180,128.9375,176,132.9375" style="stroke:#181818;stroke-width:1.0;"/><line style="stroke:#181818;stroke-width:1.0;" x1="50.5" x2="50.5" y1="172.9063" y2="192.9063"/><polygon fill="#181818" points="46.5,182.9063,50.5,192.9063,54.5,182.9063,50.5,186.9063" style="stroke:#181818;stroke-width:1.0;"/><line style="stroke:#181818;stroke-width:1.0;" x1="176" x2="176" y1="172.9063" y2="192.9063"/><polygon fill="#181818" points="172,182.9063,176,192.9063,180,182.9063,176,186.9063" style="stroke:#181818;stroke-width:1.0;"/><line style="stroke:#181818;stroke-width:1.0;" x1="122.5" x2="122.5" y1="98.9375" y2="118.9375"/><polygon fill="#181818" points="118.5,108.9375,122.5,118.9375,126.5,108.9375,122.5,112.9375" style="stroke:#181818;stroke-width:1.0;"/><line style="stroke:#181818;stroke-width:1.0;" x1="122.5" x2="122.5" y1="194.4063" y2="212.9063"/><polygon fill="#181818" points="118.5,202.9063,122.5,212.9063,126.5,202.9063,122.5,206.9063" style="stroke:#181818;stroke-width:1.0;"/><line style="stroke:#181818;stroke-width:1.0;" x1="122.5" x2="122.5" y1="246.875" y2="266.875"/><polygon fill="#181818" points="118.5,256.875,122.5,266.875,126.5,256.875,122.5,260.875" style="stroke:#181818;stroke-width:1.0;"/><!--SRC=[itesPytJEHkUx5xyV46ZDPVLitajJtVlUh9h-VFEbTPSnGKvcILS2WeALY_QLm75dJsVxEXwicS1L4OXCJqnCmyi_tJVkYVx5pxTq_2qV-BJxKkVjcw7gKpDIr60c6ELcvcNML2KdrwKcAkRd0cqxUc6_kShkf_kwdyweUzf_mPh0000]--></g></svg>