<?xml version="1.0" encoding="us-ascii" standalone="no"?><svg xmlns="http://www.w3.org/2000/svg" xmlns:xlink="http://www.w3.org/1999/xlink" contentStyleType="text/css" height="231px" preserveAspectRatio="none" style="width:198px;height:231px;background:#FFFFFF;" version="1.1" viewBox="0 0 198 231" width="198px" zoomAndPan="magnify"><defs/><g><rect fill="#F1F1F1" height="33.9688" rx="12.5" ry="12.5" style="stroke:#181818;stroke-width:0.5;" width="80" x="59" y="11"/><text fill="#000000" font-family="sans-serif" font-size="12" lengthAdjust="spacing" textLength="60" x="69" y="32.1387">&#29615;&#22659;&#39044;&#21152;&#36733;</text><rect fill="#F1F1F1" height="47.9375" rx="12.5" ry="12.5" style="stroke:#181818;stroke-width:0.5;" width="138" x="30" y="64.9688"/><text fill="#000000" font-family="sans-serif" font-size="12" lengthAdjust="spacing" textLength="118" x="40" y="86.1074">1.&#33719;&#21462;&#20195;&#30721;&#21253;&#19979;&#36733;&#38142;&#25509;</text><text fill="#000000" font-family="sans-serif" font-size="12" lengthAdjust="spacing" textLength="71" x="40" y="100.0762">2.&#19979;&#36733;&#20195;&#30721;&#21253;</text><rect fill="#F1F1F1" height="33.9688" rx="12.5" ry="12.5" style="stroke:#181818;stroke-width:0.5;" width="176" x="11" y="132.9063"/><text fill="#000000" font-family="sans-serif" font-size="12" lengthAdjust="spacing" textLength="156" x="21" y="154.0449">&#28210;&#26579;&#23618;&#21644;&#36923;&#36753;&#23618;&#20998;&#21035;&#27880;&#20837;&#20195;&#30721;</text><rect fill="#F1F1F1" height="33.9688" rx="12.5" ry="12.5" style="stroke:#181818;stroke-width:0.5;" width="68" x="65" y="186.875"/><text fill="#000000" font-family="sans-serif" font-size="12" lengthAdjust="spacing" textLength="48" x="75" y="208.0137">&#21021;&#27425;&#28210;&#26579;</text><line style="stroke:#181818;stroke-width:1.0;" x1="99" x2="99" y1="44.9688" y2="64.9688"/><polygon fill="#181818" points="95,54.9688,99,64.9688,103,54.9688,99,58.9688" style="stroke:#181818;stroke-width:1.0;"/><line style="stroke:#181818;stroke-width:1.0;" x1="99" x2="99" y1="112.9063" y2="132.9063"/><polygon fill="#181818" points="95,122.9063,99,132.9063,103,122.9063,99,126.9063" style="stroke:#181818;stroke-width:1.0;"/><line style="stroke:#181818;stroke-width:1.0;" x1="99" x2="99" y1="166.875" y2="186.875"/><polygon fill="#181818" points="95,176.875,99,186.875,103,176.875,99,180.875" style="stroke:#181818;stroke-width:1.0;"/><!--SRC=[ithUj_xfekQNYrgUTYruiNUlDPULeTwBlkrF-wSzsRtu-OB6fpsjJtPq0sLUJjxth6yfbv4UX0kN1UfujcFJi_cJdsviUZgfvsN3xXVx9eBO7MrFErO_sxpYQUjIY6AWogSTSv-jMGXHRmq0]--></g></svg>