<svg version="1.1" xmlns="http://www.w3.org/2000/svg" style="display: block;" viewBox="0 0 1200 1200" width="300" height="300" preserveAspectRatio="none">
<path transform="translate(0,0)" fill="rgb(169,220,241)" d="M 0 0 L 1200 0 L 1200 1200 L 0 1200 L 0 0 z"/>
<path transform="translate(0,0)" fill="rgb(254,254,254)" d="M 543.354 498.005 C 557.742 496.9 575.389 495.785 589.315 492.238 C 616.402 485.337 642.5 474.012 670.264 469.592 C 734.964 459.292 791.146 459.244 842.884 503.997 C 934.306 583.075 896.427 695.248 861.538 791.761 C 849.294 793.495 831.965 793.198 819.316 793.183 C 798.629 793.27 777.944 792.882 757.275 792.019 C 756.918 772.24 757.496 758.147 759.196 738.322 C 756.37 737.486 756.029 737.476 753.67 735.804 C 750.536 730.572 749.932 724.826 748.938 718.791 C 747.454 724.66 748.162 733.074 745.104 737.752 C 735.497 736.226 725.308 703.544 719.938 694.765 C 703.691 668.203 675.405 626.944 649.163 611.009 L 647.532 612.387 C 645.113 611.37 645.019 611.324 643.13 609.478 L 641.357 611.206 L 641.441 612.903 C 643.566 614.622 645.797 615.89 646.441 618.364 L 645.79 620.139 C 653.53 628.717 662.036 636.409 669.689 645.382 C 707.608 689.842 722.062 736.957 734.232 792.879 C 717.94 792.563 699.782 793.295 683.197 793.219 C 667.323 793.147 645.093 792.646 629.605 794.026 C 628.447 781.494 610.865 748.466 603.744 736.945 C 565.08 677.084 493.791 636.757 427.614 615.071 C 383.889 600.743 337.698 604.977 298.461 580.41 C 274.141 565.182 270.05 551.62 271.19 524.665 C 288.146 518.629 301.869 520.101 319.176 517.169 C 331.444 515.665 344.374 505.042 355.631 502.19 C 374.69 497.359 381.201 499.377 398.396 488.034 C 414.407 487.029 407.521 489.626 417.425 497.396 C 457.894 498.919 502.525 497.832 543.354 498.005 z"/>
<path transform="translate(0,0)" fill="rgb(241,250,252)" d="M 417.425 497.396 C 457.894 498.919 502.525 497.832 543.354 498.005 C 540.295 499.261 528.842 504.097 525.457 504.284 C 493.366 506.057 459.679 506.559 427.51 506.461 C 423.362 506.449 419.518 500.528 417.425 497.396 z"/>
<path transform="translate(0,0)" fill="rgb(144,213,229)" d="M 779.572 653.335 C 776.56 666.072 772.806 677.336 768.768 689.757 C 763.602 706.921 760.831 720.246 759.196 738.322 C 756.37 737.486 756.029 737.476 753.67 735.804 C 750.536 730.572 749.932 724.826 748.938 718.791 C 750.47 710.236 756.765 693.134 760.285 685.104 C 766.175 672.643 771.655 664.705 779.572 653.335 z"/>
<path transform="translate(0,0)" fill="rgb(144,213,229)" d="M 645.79 620.139 C 638.285 612.564 607.352 588.596 604.495 583.536 C 605.787 583.773 645.868 608.648 649.163 611.009 L 647.532 612.387 C 645.113 611.37 645.019 611.324 643.13 609.478 L 641.357 611.206 L 641.441 612.903 C 643.566 614.622 645.797 615.89 646.441 618.364 L 645.79 620.139 z"/>
<path transform="translate(0,0)" fill="rgb(169,220,241)" d="M 364.689 525.625 L 365.108 525.884 C 366.261 528.507 366.029 542.663 366.064 546.514 C 357.99 547.501 356.801 548.582 348.346 547.581 C 344.227 542.915 345.915 533.576 346.335 527.576 C 353.198 526.167 357.752 525.999 364.689 525.625 z"/>
<path transform="translate(0,0)" fill="rgb(254,254,254)" d="M 475.294 648.75 C 494.726 650.01 537.728 687.671 552.084 702.853 C 568.663 720.384 600.773 769.441 599.96 793.535 C 588.622 791.847 551.684 793.328 536.607 792.891 C 526.311 760.567 523.727 737.146 509.143 704.627 C 502.381 689.549 477.058 656.031 475.294 648.75 z"/>
</svg>